<?xml version="1.0" encoding="utf-8"?>
<svg version="1.1" xmlns="http://www.w3.org/2000/svg" xmlns:xlink="http://www.w3.org/1999/xlink" x="0px" y="0px"
	 width="196.86px" height="70.18px" viewBox="0 0 196.86 70.18" enable-background="new 0 0 196.86 70.18" xml:space="preserve">
<g>
	<g>
		<g>
			<path fill="#75BEE9" d="M44.097,4.193c-4.991-4.992-13.085-4.992-18.075,0c-1.957,1.957-3.135,4.391-3.557,6.928
				c-1.443,4.057-4.01,7.344-7.279,9.461c3.068,0.416,6.03,1.785,8.383,4.139c2.139,2.137,3.54,4.844,4.064,7.834
				c0.045,0.148,0.102,0.291,0.15,0.436c2.121-3.213,5.376-5.738,9.384-7.164c2.536-0.422,4.974-1.6,6.929-3.557
				C49.087,17.277,49.087,9.186,44.097,4.193z M40.793,18.967c-3.161,3.162-8.307,3.162-11.468,0c-3.163-3.162-3.163-8.309,0-11.471
				c3.161-3.16,8.307-3.16,11.47,0.002C43.955,10.658,43.955,15.805,40.793,18.967z"/>
		</g>
	</g>
	<g>
		<g>
			<path fill="#00758C" d="M25.795,32.994c-0.421-2.541-1.598-4.98-3.559-6.941c-4.992-4.99-13.084-4.99-18.075,0
				C-0.83,31.045-0.83,39.137,4.16,44.127c1.961,1.961,4.4,3.141,6.941,3.562c3.883,1.186,7.178,3.799,9.434,7.383
				c0.398-3.107,1.773-6.113,4.153-8.492c2.126-2.127,4.812-3.525,7.779-4.055c0.184-0.068,0.362-0.139,0.54-0.213
				C29.514,40.061,26.963,36.814,25.795,32.994z M18.933,40.824c-3.163,3.162-8.307,3.162-11.469,0
				c-3.162-3.16-3.162-8.305,0-11.467c3.163-3.162,8.306-3.164,11.469-0.002C22.096,32.52,22.096,37.664,18.933,40.824z"/>
		</g>
	</g>
	<path fill="#A6CE39" d="M46.551,45.463c-2.139-2.139-3.543-4.844-4.064-7.838c-0.048-0.145-0.102-0.287-0.15-0.434
		c-2.121,3.215-5.377,5.736-9.384,7.164c-2.538,0.422-4.973,1.6-6.931,3.557c-4.99,4.992-4.99,13.084,0,18.074
		c4.99,4.992,13.084,4.992,18.075,0c1.956-1.955,3.134-4.391,3.558-6.926c1.443-4.057,4.01-7.342,7.277-9.461
		C51.865,49.184,48.902,47.816,46.551,45.463z M40.795,62.684c-3.162,3.162-8.309,3.162-11.471,0
		c-3.16-3.162-3.16-8.307,0.001-11.469c3.161-3.16,8.308-3.16,11.47,0C43.956,54.377,43.956,59.521,40.795,62.684z"/>
	<path fill="#F15A22" d="M65.957,26.055c-1.961-1.961-4.4-3.141-6.94-3.561c-3.882-1.186-7.177-3.801-9.434-7.385
		c-0.399,3.107-1.772,6.111-4.155,8.494c-2.123,2.125-4.811,3.523-7.777,4.051c-0.182,0.068-0.36,0.143-0.541,0.215
		c3.494,2.252,6.047,5.498,7.215,9.318c0.42,2.541,1.599,4.98,3.559,6.941c4.99,4.992,13.084,4.992,18.074,0
		S70.947,31.045,65.957,26.055z M62.654,40.824c-3.164,3.162-8.307,3.166-11.47,0.002c-3.161-3.162-3.161-8.307,0-11.469
		c3.163-3.162,8.306-3.162,11.47,0C65.816,32.52,65.816,37.664,62.654,40.824z"/>
	<g>
		<g>
			<path fill="#414042" d="M79.645,38.142v-2.08l2.658-2.58c6.393-6.085,9.282-9.32,9.32-13.095c0-2.542-1.232-4.891-4.968-4.891
				c-2.272,0-4.16,1.155-5.315,2.118l-1.079-2.388c1.733-1.464,4.198-2.542,7.086-2.542c5.392,0,7.664,3.697,7.664,7.279
				c0,4.621-3.351,8.356-8.627,13.44l-2.002,1.849v0.077h11.246v2.812H79.645z"/>
			<path fill="#414042" d="M116.035,25.355c0,8.511-3.157,13.21-8.703,13.21c-4.892,0-8.203-4.583-8.28-12.863
				c0-8.396,3.62-13.018,8.704-13.018C113.031,12.685,116.035,17.383,116.035,25.355z M102.44,25.74
				c0,6.509,2.003,10.206,5.084,10.206c3.466,0,5.122-4.044,5.122-10.438c0-6.162-1.579-10.205-5.084-10.205
				C104.598,15.304,102.44,18.924,102.44,25.74z"/>
			<path fill="#414042" d="M144.53,26.741c-0.192-3.62-0.423-7.972-0.385-11.207h-0.116c-0.885,3.043-1.964,6.277-3.273,9.859
				l-4.582,12.594h-2.543l-4.197-12.362c-1.232-3.659-2.272-7.01-3.004-10.091h-0.077c-0.077,3.235-0.271,7.587-0.501,11.478
				l-0.693,11.13h-3.196l1.81-25.958h4.275l4.43,12.556c1.078,3.196,1.963,6.046,2.618,8.742h0.116
				c0.654-2.619,1.578-5.469,2.734-8.742l4.621-12.556h4.275l1.617,25.958h-3.273L144.53,26.741z"/>
			<path fill="#414042" d="M157.733,14.264c0.038,1.155-0.81,2.079-2.157,2.079c-1.193,0-2.041-0.924-2.041-2.079
				c0-1.194,0.886-2.118,2.118-2.118C156.924,12.146,157.733,13.069,157.733,14.264z M153.959,38.142V19.501h3.389v18.641H153.959z"
				/>
			<path fill="#414042" d="M162.969,10.797h3.39v27.345h-3.39V10.797z"/>
			<path fill="#414042" d="M173.943,29.438c0.077,4.583,3.005,6.471,6.394,6.471c2.427,0,3.89-0.424,5.161-0.963l0.577,2.426
				c-1.193,0.539-3.235,1.155-6.2,1.155c-5.738,0-9.166-3.773-9.166-9.396s3.312-10.053,8.742-10.053
				c6.085,0,7.702,5.354,7.702,8.781c0,0.693-0.076,1.232-0.115,1.579H173.943z M183.88,27.012c0.039-2.157-0.886-5.508-4.698-5.508
				c-3.428,0-4.93,3.158-5.199,5.508H183.88z"/>
		</g>
	</g>
	<g>
		<g>
			<path fill="#636466" d="M83.098,47.208c0.027,0.808-0.565,1.454-1.507,1.454c-0.834,0-1.426-0.646-1.426-1.454
				c0-0.834,0.619-1.48,1.48-1.48C82.533,45.728,83.098,46.374,83.098,47.208z M80.46,63.896V50.869h2.369v13.027H80.46z"/>
			<path fill="#636466" d="M86.758,54.395c0-1.346-0.027-2.449-0.107-3.525h2.099l0.135,2.153h0.054
				c0.646-1.238,2.153-2.449,4.307-2.449c1.804,0,4.603,1.076,4.603,5.544v7.779h-2.369v-7.51c0-2.1-0.781-3.849-3.015-3.849
				c-1.562,0-2.772,1.104-3.176,2.422c-0.108,0.296-0.162,0.7-0.162,1.104v7.833h-2.369V54.395z"/>
			<path fill="#636466" d="M104.441,47.128v3.741h3.393v1.803h-3.393v7.025c0,1.615,0.458,2.53,1.777,2.53
				c0.619,0,1.076-0.081,1.373-0.161l0.107,1.776c-0.458,0.188-1.185,0.323-2.1,0.323c-1.104,0-1.992-0.351-2.557-0.996
				c-0.674-0.7-0.916-1.857-0.916-3.392v-7.106h-2.019v-1.803h2.019v-3.122L104.441,47.128z"/>
			<path fill="#636466" d="M111.655,57.813c0.054,3.203,2.1,4.521,4.468,4.521c1.696,0,2.719-0.296,3.607-0.673l0.404,1.696
				c-0.835,0.377-2.262,0.808-4.334,0.808c-4.011,0-6.406-2.638-6.406-6.568c0-3.93,2.314-7.024,6.109-7.024
				c4.254,0,5.384,3.741,5.384,6.137c0,0.484-0.054,0.861-0.081,1.104H111.655z M118.6,56.117c0.027-1.507-0.619-3.849-3.283-3.849
				c-2.396,0-3.445,2.207-3.635,3.849H118.6z"/>
			<path fill="#636466" d="M123.821,54.934c0-1.534-0.026-2.854-0.107-4.064h2.072l0.081,2.557h0.107
				c0.592-1.749,2.019-2.853,3.607-2.853c0.269,0,0.457,0.026,0.672,0.08v2.234c-0.242-0.054-0.484-0.081-0.807-0.081
				c-1.669,0-2.854,1.266-3.177,3.042c-0.054,0.323-0.107,0.699-0.107,1.104v6.944h-2.342V54.934z"/>
			<path fill="#636466" d="M139.702,63.896l-0.188-1.642h-0.081c-0.727,1.022-2.126,1.938-3.983,1.938
				c-2.638,0-3.984-1.857-3.984-3.741c0-3.149,2.8-4.872,7.834-4.845v-0.27c0-1.076-0.297-3.015-2.961-3.015
				c-1.212,0-2.477,0.377-3.393,0.969l-0.537-1.561c1.076-0.7,2.637-1.157,4.279-1.157c3.983,0,4.953,2.718,4.953,5.329v4.872
				c0,1.13,0.053,2.233,0.215,3.122H139.702z M139.352,57.248c-2.584-0.054-5.518,0.403-5.518,2.934
				c0,1.534,1.023,2.262,2.234,2.262c1.695,0,2.772-1.077,3.148-2.181c0.082-0.242,0.135-0.512,0.135-0.754V57.248z"/>
			<path fill="#636466" d="M154.748,63.412c-0.619,0.323-1.992,0.754-3.742,0.754c-3.93,0-6.486-2.665-6.486-6.648
				c0-4.011,2.745-6.918,6.998-6.918c1.4,0,2.638,0.35,3.284,0.673l-0.538,1.83c-0.566-0.322-1.454-0.619-2.746-0.619
				c-2.988,0-4.603,2.208-4.603,4.926c0,3.015,1.938,4.872,4.522,4.872c1.346,0,2.233-0.35,2.906-0.646L154.748,63.412z"/>
			<path fill="#636466" d="M160.723,47.128v3.741h3.392v1.803h-3.392v7.025c0,1.615,0.458,2.53,1.777,2.53
				c0.618,0,1.076-0.081,1.372-0.161l0.107,1.776c-0.457,0.188-1.184,0.323-2.099,0.323c-1.104,0-1.992-0.351-2.558-0.996
				c-0.673-0.7-0.915-1.857-0.915-3.392v-7.106h-2.02v-1.803h2.02v-3.122L160.723,47.128z"/>
			<path fill="#636466" d="M169.416,47.208c0.027,0.808-0.565,1.454-1.507,1.454c-0.835,0-1.427-0.646-1.427-1.454
				c0-0.834,0.619-1.48,1.48-1.48C168.851,45.728,169.416,46.374,169.416,47.208z M166.778,63.896V50.869h2.369v13.027H166.778z"/>
			<path fill="#636466" d="M173.992,50.869l2.558,7.321c0.431,1.184,0.78,2.261,1.05,3.338h0.08
				c0.296-1.077,0.673-2.154,1.104-3.338l2.53-7.321h2.477l-5.114,13.027h-2.261l-4.953-13.027H173.992z"/>
			<path fill="#636466" d="M187.073,57.813c0.054,3.203,2.1,4.521,4.468,4.521c1.695,0,2.719-0.296,3.606-0.673l0.404,1.696
				c-0.835,0.377-2.261,0.808-4.334,0.808c-4.011,0-6.406-2.638-6.406-6.568c0-3.93,2.315-7.024,6.11-7.024
				c4.253,0,5.384,3.741,5.384,6.137c0,0.484-0.055,0.861-0.081,1.104H187.073z M194.018,56.117
				c0.026-1.507-0.619-3.849-3.284-3.849c-2.396,0-3.445,2.207-3.634,3.849H194.018z"/>
		</g>
	</g>
</g>
</svg>
