<?xml version="1.0" encoding="utf-8"?>
<!-- Generator: Adobe Illustrator 16.0.0, SVG Export Plug-In . SVG Version: 6.00 Build 0)  -->
<!DOCTYPE svg PUBLIC "-//W3C//DTD SVG 1.1//EN" "http://www.w3.org/Graphics/SVG/1.1/DTD/svg11.dtd">
<svg version="1.1" id="Layer_1" xmlns="http://www.w3.org/2000/svg" xmlns:xlink="http://www.w3.org/1999/xlink" x="0px" y="0px"
	 width="168px" height="125px" viewBox="0 0 168 125" enable-background="new 0 0 168 125" xml:space="preserve">
<g>
	<path fill="#02758D" d="M167.889,82.635c-0.014,0.211-0.031,0.423-0.054,0.632c0.059,0.61,0.089,1.228,0.089,1.846l0,0
		C167.924,84.176,167.909,83.344,167.889,82.635 M-0.061,82.27c-0.009,0.717-0.016,1.646-0.016,2.843l0,0
		c0-0.619,0.03-1.235,0.089-1.848C-0.022,82.935-0.046,82.603-0.061,82.27 M0.014,79.892c0,0.004-0.001,0.012-0.003,0.024
		C0.012,79.908,0.013,79.9,0.014,79.892"/>
	<path fill="#00364D" d="M0.013,83.265c-0.059,0.612-0.089,1.229-0.089,1.848c0,22.021,37.603,39.872,84,39.872
		c46.396,0,84-17.851,84-39.872c0-0.618-0.03-1.235-0.089-1.846c-2.029,19.291-38.816,34.661-83.911,34.661
		c-11.599,0-22.648-1.016-32.696-2.857c-0.017-0.003-0.035-0.005-0.052-0.005c-0.353,0-0.704,0.597-1.048,1.192
		c-0.35,0.603-0.692,1.194-1.034,1.194c-0.019,0-0.038-0.001-0.058-0.005c-0.784-0.155-1.56-3.112-2.335-3.274
		c-0.992-0.209-1.985-0.436-2.958-0.662c-0.022-0.005-0.045-0.008-0.068-0.008c-0.483,0-0.965,1.083-1.438,2.175
		c-0.469,1.089-0.938,2.179-1.407,2.179c-0.027,0-0.054-0.003-0.081-0.011c-1.1-0.281-2.192-5.66-3.265-5.977
		C15.852,105.655,1.27,95.212,0.013,83.265"/>
	<path fill="#02758D" d="M24.421,55.931C10.14,62.132,1.003,70.552,0.014,79.892c-0.001,0.009-0.002,0.017-0.003,0.024
		c-0.058,0.553-0.087,1.109-0.087,1.668c0,0.229,0.006,0.457,0.016,0.686c0.014,0.333,0.039,0.665,0.073,0.995
		c1.257,11.947,15.839,22.391,37.469,28.604c1.073,0.316,2.165,5.695,3.265,5.977c0.027,0.008,0.054,0.011,0.081,0.011
		c0.469,0,0.938-1.09,1.407-2.179c0.474-1.092,0.956-2.175,1.438-2.175c0.022,0,0.045,0.003,0.068,0.008
		c0.974,0.227,1.966,0.453,2.958,0.662c0.775,0.162,1.551,3.119,2.335,3.274c0.02,0.004,0.039,0.005,0.058,0.005
		c0.341,0,0.684-0.592,1.034-1.194c0.344-0.596,0.695-1.192,1.048-1.192c0.018,0,0.035,0.002,0.052,0.005
		c10.048,1.842,21.097,2.857,32.696,2.857c45.095,0,81.882-15.37,83.911-34.661c0.022-0.209,0.04-0.421,0.054-0.632
		c0.022-0.349,0.035-0.699,0.035-1.051c0-7.389-5.096-14.262-13.85-19.998c3.386,6.335,5.507,12.936,5.507,18.691
		c0,8.082-15.353,15.582-36.62,15.664c-0.123,0.001-0.25,0.001-0.373,0.001c-6.818,0-13.019-0.8-18.29-2.152
		c0.001,0.05,0.001,0.099,0.001,0.148c0,8.08-15.352,15.581-36.619,15.662c-0.124,0-0.25,0-0.373,0
		c-21.067,0-36.247-7.628-36.247-15.662c0-4.301,1.182-9.067,3.189-13.844c-9.661-0.804-16.294-4.58-16.294-8.542
		C17.955,66.707,20.663,60.785,24.421,55.931"/>
	<ellipse fill="#F15C25" cx="113.305" cy="104.646" rx="8.229" ry="3.559"/>
	<path fill="#02758D" d="M83.924,4C68.291,4,47.602,26.819,41.387,47.221c1.294,0.458,2.617,1.169,3.928,2.078
		c11.56-2.593,24.687-4.058,38.608-4.058c6.624,0,13.064,0.332,19.246,0.958c5.855-5.924,12.424-10.116,18.289-10.745
		C112.536,18.943,96.574,4,83.924,4"/>
	<path fill="#00364D" d="M83.924,45.241c-13.921,0-27.049,1.464-38.608,4.058c2.412,1.671,4.779,4.01,6.832,6.667
		c5.195-4.249,10.662-6.934,15.533-6.934c7.363,0,16.082,6.128,23.164,14.517c3.069-6.28,7.451-12.416,12.326-17.349
		C96.988,45.573,90.548,45.241,83.924,45.241"/>
	<path fill="#FFFFFF" d="M55.651,21.628c0,0,6.433-8.544,9.153-5.809c2.72,2.736,2.291,12.093,5.44,12.093s6.873-6.623,9.735-6.623
		c2.863,0,8.017,9.501,12.312,9.501s6.3-10.077,8.303-10.077c2.006,0,8.866,7.783,10.595,6.047c1.728-1.739,0.71-5.633,0.71-5.633
		S99.735-0.016,84.561-0.016C69.385-0.016,55.651,21.628,55.651,21.628z"/>
	<path fill="#02758D" d="M122.961,35.373c-0.494,0-0.996,0.028-1.502,0.082c2.692,4.982,4.742,10.106,5.869,15.007
		c10.713,2.803,19.861,6.612,26.746,11.124C146.741,47.86,133.471,35.373,122.961,35.373"/>
	<path fill="#00364D" d="M127.328,50.462c0.631,2.748,0.973,5.425,0.973,7.967c0,7.71-11.528,14.98-29.001,17.781
		c3.062,5.982,4.965,12.148,4.998,17.58c5.271,1.353,11.472,2.152,18.29,2.152c0.123,0,0.25,0,0.373-0.001
		c21.268-0.082,36.62-7.582,36.62-15.664c0-5.756-2.121-12.356-5.507-18.691C147.189,57.074,138.041,53.265,127.328,50.462"/>
	<path fill="#00364D" d="M121.459,35.455c-5.865,0.628-12.434,4.82-18.289,10.745c8.642,0.876,16.773,2.331,24.158,4.262
		C126.201,45.561,124.151,40.438,121.459,35.455"/>
	<path fill="#091B2A" d="M103.17,46.2c-4.875,4.933-9.257,11.069-12.326,17.349c3.265,3.866,6.181,8.214,8.456,12.661
		c17.473-2.801,29.001-10.071,29.001-17.781c0-2.542-0.342-5.219-0.973-7.967C119.943,48.53,111.812,47.076,103.17,46.2"/>
	<path fill="#FFFFFF" d="M99.582,49.913c0,0,5.308-7.049,7.553-4.792c2.244,2.257,1.889,9.978,4.488,9.978s5.67-5.464,8.032-5.464
		s6.615,7.84,10.159,7.84c3.543,0,5.197-8.315,6.852-8.315c1.652,0,7.315,6.422,8.741,4.988c1.425-1.433,0.587-4.645,0.587-4.645
		s-10.037-17.448-22.558-17.448C110.914,32.055,99.582,49.913,99.582,49.913z"/>
	<path fill="#02758D" d="M38.267,46.638c-4.435,0-9.76,4.017-13.846,9.293C29.24,53.839,34.644,52,40.52,50.462
		c0.247-1.072,0.536-2.151,0.868-3.241C40.319,46.843,39.27,46.638,38.267,46.638"/>
	<path fill="#00364D" d="M40.52,50.462C34.644,52,29.24,53.839,24.421,55.931c-3.758,4.854-6.466,10.776-6.466,15.622
		c0,3.962,6.634,7.738,16.294,8.542c2.105-5.009,5.12-10.029,8.632-14.528c-2.163-2.254-3.333-4.681-3.333-7.138
		C39.547,55.887,39.889,53.209,40.52,50.462"/>
	<path fill="#00364D" d="M41.387,47.221c-0.332,1.089-0.621,2.169-0.868,3.241c1.565-0.409,3.167-0.798,4.796-1.163
		C44.004,48.39,42.681,47.679,41.387,47.221"/>
	<path fill="#091B2A" d="M45.315,49.299c-1.629,0.365-3.231,0.754-4.796,1.163c-0.631,2.748-0.972,5.425-0.972,7.967
		c0,2.457,1.171,4.884,3.333,7.138c2.836-3.633,5.998-6.926,9.266-9.601C50.095,53.309,47.728,50.97,45.315,49.299"/>
	<path fill="#00364D" d="M57.858,73.821c-2.297,3.529-9.816,6.385-19.591,6.43c-0.062,0-0.125,0-0.187,0
		c-1.321,0-2.601-0.054-3.831-0.156c-2.007,4.776-3.189,9.543-3.189,13.844c0,8.034,15.18,15.662,36.247,15.662
		c0.123,0,0.25,0,0.373,0c21.268-0.081,36.619-7.582,36.619-15.662c0-0.05,0-0.099-0.001-0.148
		c-11.013-2.828-17.957-8.077-17.957-13.513c0-0.944,0.058-1.913,0.169-2.897c-0.854,0.023-1.716,0.038-2.586,0.041
		c-0.137,0.001-0.274,0.001-0.411,0.001C73.693,77.422,64.929,76.056,57.858,73.821"/>
	<path fill="#091B2A" d="M67.68,49.032c-4.871,0-10.338,2.685-15.533,6.934c3.745,4.849,6.441,10.753,6.441,15.587
		c0,0.773-0.252,1.536-0.73,2.269c7.071,2.234,15.835,3.601,25.655,3.601c0.137,0,0.274,0,0.411-0.001
		c0.87-0.003,1.732-0.018,2.586-0.041c0.493-4.401,2.049-9.154,4.334-13.831C83.762,55.16,75.043,49.032,67.68,49.032"/>
	<path fill="#091B2A" d="M99.3,76.21c-3.979,0.638-8.262,1.043-12.79,1.17c-0.111,0.984-0.169,1.953-0.169,2.897
		c0,5.436,6.944,10.685,17.957,13.513C104.265,88.358,102.361,82.192,99.3,76.21"/>
	<path fill="#0B121A" d="M90.844,63.549c-2.285,4.677-3.841,9.43-4.334,13.831c4.528-0.127,8.812-0.532,12.79-1.17
		C97.024,71.763,94.108,67.415,90.844,63.549"/>
	<path fill="#091B2A" d="M42.881,65.566c-3.512,4.499-6.526,9.52-8.632,14.528c1.23,0.103,2.51,0.156,3.831,0.156
		c0.062,0,0.125,0,0.187,0c9.775-0.045,17.294-2.9,19.591-6.43C51.169,71.707,45.997,68.815,42.881,65.566"/>
	<path fill="#0B121A" d="M52.147,55.966c-3.269,2.674-6.43,5.968-9.266,9.601c3.116,3.249,8.288,6.141,14.977,8.255
		c0.478-0.732,0.73-1.495,0.73-2.269C58.588,66.719,55.892,60.814,52.147,55.966"/>
	<path fill="#FFFFFF" d="M44.302,63.571c0,0,5.309-7.05,7.553-4.793c2.244,2.257,1.889,9.978,4.489,9.978
		c2.598,0,5.668-5.463,8.032-5.463c2.362,0,6.614,7.838,10.158,7.838s5.198-8.313,6.852-8.313c1.653,0,7.316,6.422,8.741,4.988
		c1.426-1.433,0.586-4.647,0.586-4.647S80.677,45.712,68.155,45.712C55.634,45.712,44.302,63.571,44.302,63.571z"/>
	<path fill="none" stroke="#F15C25" stroke-width="2.1216" stroke-dasharray="2.8289,2.8289" d="M113.305,104.646
		c-8.229,0-11.146-9.888-21.365-9.888c-19.748,0-53.094-3.532-53.094-18.96"/>
	<path fill="none" stroke="#F15C25" stroke-width="2.1216" stroke-dasharray="2.8289,2.8289" d="M86.825,53.28
		c12.493,0,8.25-21.837,29.346-24.796"/>
	<path fill="none" stroke="#F15C25" stroke-width="2.1216" stroke-dasharray="2.8289,2.8289" d="M52.941,26.283
		C89.859,45.494,84.136,8.36,84.136,8.36"/>
	<ellipse fill="#F15C25" cx="83.924" cy="8.581" rx="5.491" ry="4.604"/>
</g>
</svg>
